<svg xmlns="http://www.w3.org/2000/svg" width="284" height="67" fill="none" viewBox="0 0 284 67">
    <g clip-path="url(#clip0)">
        <path fill="#1D4370" d="M78.39 19.11h9.14v12.25H99.6V19.11h9.13v32.74H99.6V39.41H87.52v12.44h-9.14V19.11h.01zm38.25 16.46v-.09c0-9.4 7.46-17.03 17.63-17.03 10.17 0 17.53 7.53 17.53 16.93v.09c0 9.4-7.46 17.02-17.63 17.02-10.17.01-17.53-7.52-17.53-16.92zm25.84 0v-.09c0-4.72-3.27-8.84-8.3-8.84-4.99 0-8.16 4.02-8.16 8.75v.09c0 4.72 3.27 8.84 8.26 8.84 5.02 0 8.2-4.02 8.2-8.75zm17.65-16.46h9.14V43.9h15.1v7.95h-24.24V19.11zm28.83 16.46v-.09c0-9.54 7.39-17.03 17.38-17.03 6.73 0 11.07 2.81 13.99 6.83l-6.88 5.29c-1.88-2.34-4.05-3.84-7.2-3.84-4.61 0-7.86 3.88-7.86 8.65v.09c0 4.91 3.25 8.75 7.86 8.75 3.44 0 5.46-1.59 7.44-3.98l6.88 4.86c-3.11 4.26-7.3 7.39-14.6 7.39-9.43.01-17.01-7.14-17.01-16.92zm39.81-16.46h9.18v32.74h-9.18V19.11zm18.63 0h9.65l8.38 12.68 8.38-12.68h9.65v32.74h-9.09V32.7l-8.94 12.82h-.19l-8.9-12.72v19.05h-8.95V19.11h.01z"/>
        <path fill="url(#paint0_linear)" d="M43.36 0C34.61 0 27.1 5.6 25.08 14.23c-.42 1.85-.71 4.23-.71 7.5v6.37H38V13.63h10.72v23.51c7.86-2.32 13.64-9.58 13.64-18.22C62.36 8.27 54.02 0 43.36 0zM18.83 65.48c8.76 0 16.43-5.6 18.45-14.23.42-1.85.71-4.23.71-7.5v-6.37H24.36v14.47H13.64V28.34C5.78 30.66 0 37.92 0 46.55c0 11.11 7.72 18.93 18.83 18.93z"/>
    </g>
    <defs>
        <linearGradient id="paint0_linear" x1="-1.804" x2="63.995" y1="46.714" y2="18.784" gradientUnits="userSpaceOnUse">
            <stop offset=".15" stop-color="#94C12E"/>
            <stop offset=".186" stop-color="#8DC137"/>
            <stop offset=".245" stop-color="#7BC04F"/>
            <stop offset=".32" stop-color="#5EBF77"/>
            <stop offset=".407" stop-color="#36BDAE"/>
            <stop offset=".5" stop-color="#04BBF1"/>
            <stop offset=".586" stop-color="#05B7ED"/>
            <stop offset=".674" stop-color="#08ABE0"/>
            <stop offset=".764" stop-color="#0C98CC"/>
            <stop offset=".855" stop-color="#117DAF"/>
            <stop offset=".946" stop-color="#185B8A"/>
            <stop offset="1" stop-color="#1D4370"/>
        </linearGradient>
        <clipPath id="clip0">
            <path fill="#fff" d="M0 0H283.46V66.47H0z"/>
        </clipPath>
    </defs>
</svg>
